<svg id="グループ_437" data-name="グループ 437" xmlns="http://www.w3.org/2000/svg" xmlns:xlink="http://www.w3.org/1999/xlink" width="20" height="16" viewBox="0 0 20 16">
  <defs>
    <clipPath id="clip-path">
      <rect id="長方形_368" data-name="長方形 368" width="20" height="16" fill="#454c4c"/>
    </clipPath>
  </defs>
  <g id="グループ_436" data-name="グループ 436" clip-path="url(#clip-path)">
    <path id="パス_1568" data-name="パス 1568" d="M8.5.282l.041.042a.906.906,0,0,1,0,1.254l-5.4,5.528h15.99A.876.876,0,0,1,20,7.994v.1a.876.876,0,0,1-.866.888H3.144L8.43,14.41a.906.906,0,0,1,0,1.254l-.071.073a.842.842,0,0,1-1.222,0L.252,8.673a.906.906,0,0,1,0-1.254L7.208.282A.882.882,0,0,1,8.5.282" transform="translate(0 0)" fill="#454c4c"/>
  </g>
</svg>
